<?xml version="1.0" encoding="UTF-8" standalone="no"?>
<svg xmlns="http://www.w3.org/2000/svg" xmlns:xlink="http://www.w3.org/1999/xlink" width="1200" height="400" viewBox="0 0 1200 400">
  <defs>
    <linearGradient id="grad1" x1="0%" y1="0%" x2="100%" y2="0%">
      <stop offset="0%" style="stop-color:#1a237e;stop-opacity:1" />
      <stop offset="100%" style="stop-color:#3949ab;stop-opacity:1" />
    </linearGradient>
  </defs>
  
  <!-- Background -->
  <rect width="100%" height="100%" fill="url(#grad1)"/>
  
  <!-- Building silhouette -->
  <rect x="800" y="50" width="300" height="300" fill="#2a3eb1" rx="5" ry="5"/>
  <rect x="850" y="90" width="60" height="80" fill="#b2c8ff" rx="2" ry="2"/>
  <rect x="930" y="90" width="60" height="80" fill="#b2c8ff" rx="2" ry="2"/>
  <rect x="850" y="190" width="60" height="80" fill="#b2c8ff" rx="2" ry="2"/>
  <rect x="930" y="190" width="60" height="80" fill="#b2c8ff" rx="2" ry="2"/>
  
  <!-- Decorative elements -->
  <circle cx="200" cy="200" r="80" fill="#ffc107" opacity="0.7"/>
  <path d="M 100,300 C 200,200 300,350 400,250" stroke="#b2c8ff" stroke-width="8" fill="none"/>
  
  <!-- Decorative dots -->
  <circle cx="150" cy="100" r="4" fill="white" opacity="0.6"/>
  <circle cx="180" cy="140" r="2" fill="white" opacity="0.6"/>
  <circle cx="120" cy="160" r="3" fill="white" opacity="0.6"/>
  <circle cx="220" cy="110" r="2" fill="white" opacity="0.6"/>
  <circle cx="250" cy="150" r="3" fill="white" opacity="0.6"/>
  
  <!-- Pattern overlay -->
  <g opacity="0.05">
    <rect x="0" y="0" width="1200" height="400" fill="url(#pattern)"/>
  </g>
  
  <defs>
    <pattern id="pattern" x="0" y="0" width="20" height="20" patternUnits="userSpaceOnUse">
      <circle cx="10" cy="10" r="1" fill="white"/>
    </pattern>
  </defs>
</svg>